<svg width="568" height="278" viewBox="0 0 568 278" fill="none" xmlns="http://www.w3.org/2000/svg">
<path d="M107.035 196.48C113.757 196.48 119.938 196.196 125.577 195.626C131.217 195.056 136.144 194.401 140.36 193.661C145.259 192.863 149.731 191.923 153.775 190.841L151.297 204.684C150.614 204.627 149.588 204.57 148.221 204.513C146.854 204.456 145.316 204.399 143.607 204.342C141.955 204.285 140.189 204.228 138.309 204.171C136.486 204.171 134.749 204.142 133.097 204.085C131.445 204.085 129.964 204.057 128.653 204C127.4 204 126.489 204 125.919 204H89.0049V203.658C89.3467 202.462 89.66 200.981 89.9448 199.215C90.2866 197.449 90.5715 195.256 90.7993 192.635C91.0272 190.015 91.1981 186.91 91.312 183.321C91.4259 179.675 91.4829 175.431 91.4829 170.589V114.962C91.4829 110.12 91.4259 105.904 91.312 102.315C91.1981 98.6696 91.0272 95.5365 90.7993 92.916C90.5715 90.2386 90.2866 88.0169 89.9448 86.251C89.66 84.485 89.3467 83.0039 89.0049 81.8076V81.4658H109.513V81.8076C109.171 83.0039 108.829 84.485 108.487 86.251C108.202 88.0169 107.946 90.2386 107.718 92.916C107.547 95.5365 107.376 98.6696 107.206 102.315C107.092 105.904 107.035 110.12 107.035 114.962V196.48ZM170.267 203.658C170.609 202.462 170.922 200.981 171.207 199.215C171.492 197.449 171.748 195.256 171.976 192.635C172.204 190.015 172.375 186.91 172.489 183.321C172.603 179.675 172.66 175.431 172.66 170.589V114.962C172.66 110.12 172.603 105.904 172.489 102.315C172.375 98.6696 172.204 95.5365 171.976 92.916C171.748 90.2386 171.492 88.0169 171.207 86.251C170.922 84.485 170.609 83.0039 170.267 81.8076V81.4658H190.689V81.8076C190.348 83.0039 190.006 84.485 189.664 86.251C189.379 88.0169 189.123 90.2386 188.895 92.916C188.724 95.5365 188.553 98.6696 188.382 102.315C188.268 105.904 188.211 110.12 188.211 114.962V170.589C188.211 175.431 188.268 179.675 188.382 183.321C188.553 186.91 188.724 190.015 188.895 192.635C189.123 195.256 189.379 197.449 189.664 199.215C190.006 200.981 190.348 202.462 190.689 203.658V204H170.267V203.658ZM218.46 114.962C218.46 110.12 218.403 105.904 218.29 102.315C218.176 98.6696 218.005 95.5365 217.777 92.916C217.549 90.2386 217.264 88.0169 216.922 86.251C216.638 84.485 216.324 83.0039 215.982 81.8076V81.4658C217.122 81.5228 218.318 81.5513 219.571 81.5513C220.654 81.6082 221.85 81.6367 223.16 81.6367C224.527 81.6367 225.923 81.6367 227.347 81.6367C229.398 81.6367 232.161 81.4373 235.636 81.0386C239.168 80.6398 243.696 80.4404 249.222 80.4404C254.349 80.4404 259.077 81.124 263.407 82.4912C267.736 83.8014 271.467 85.7098 274.601 88.2163C277.791 90.7228 280.269 93.8275 282.035 97.5303C283.858 101.176 284.769 105.335 284.769 110.006C284.769 113.937 284.228 117.468 283.146 120.602C282.063 123.678 280.525 126.384 278.531 128.719C276.594 130.998 274.23 132.935 271.439 134.53C268.705 136.068 265.685 137.293 262.381 138.204C267.223 138.945 271.638 140.198 275.626 141.964C279.614 143.673 283.032 145.838 285.88 148.458C288.785 151.078 291.007 154.155 292.545 157.687C294.14 161.161 294.938 165.035 294.938 169.308C294.938 181.327 290.978 190.357 283.06 196.395C275.142 202.376 263.293 205.367 247.513 205.367C245.804 205.367 243.81 205.282 241.532 205.111C239.253 204.997 236.917 204.854 234.525 204.684C232.189 204.513 229.882 204.342 227.604 204.171C225.325 204.057 223.331 204 221.622 204H215.982V203.658C216.324 202.462 216.638 200.981 216.922 199.215C217.264 197.449 217.549 195.256 217.777 192.635C218.005 190.015 218.176 186.91 218.29 183.321C218.403 179.675 218.46 175.431 218.46 170.589V114.962ZM249.82 143.417C245.947 143.417 242.7 143.559 240.079 143.844C237.459 144.129 235.436 144.413 234.012 144.698V170.589C234.012 177.254 234.126 182.752 234.354 187.081C234.582 191.41 234.895 194.942 235.294 197.677C237.459 197.962 239.623 198.218 241.788 198.446C243.953 198.674 245.69 198.788 247 198.788C257.653 198.788 265.429 196.424 270.328 191.695C275.284 186.91 277.762 179.59 277.762 169.735C277.762 165.861 277.164 162.329 275.968 159.139C274.828 155.892 273.091 153.101 270.755 150.765C268.477 148.43 265.571 146.635 262.04 145.382C258.565 144.072 254.492 143.417 249.82 143.417ZM234.012 137.008C235.607 137.179 237.031 137.293 238.285 137.35C239.538 137.35 240.877 137.35 242.301 137.35C246.174 137.35 249.706 136.808 252.896 135.726C256.087 134.587 258.792 132.906 261.014 130.685C263.293 128.463 265.059 125.7 266.312 122.396C267.565 119.035 268.192 115.133 268.192 110.689C268.192 106.987 267.736 103.626 266.825 100.606C265.913 97.5872 264.546 95.0238 262.723 92.916C260.957 90.7513 258.764 89.0993 256.144 87.96C253.523 86.8206 250.532 86.251 247.171 86.251C245.007 86.251 243.098 86.3364 241.446 86.5073C239.851 86.6782 238.484 86.8776 237.345 87.1055C236.035 87.3333 234.924 87.6182 234.012 87.96V137.008ZM314.249 81.4658C321.37 81.4658 328.434 81.4373 335.44 81.3804C342.504 81.3234 348.97 81.2664 354.837 81.2095C360.705 81.0955 365.718 80.9531 369.876 80.7822C374.035 80.6113 376.855 80.3835 378.336 80.0986L374.149 91.4634C372.269 90.9507 370.076 90.495 367.569 90.0962C365.405 89.7544 362.756 89.4411 359.623 89.1562C356.546 88.8145 352.986 88.6436 348.941 88.6436C347.574 88.6436 345.922 88.7005 343.985 88.8145C342.105 88.8714 340.283 88.9569 338.517 89.0708C336.466 89.1847 334.387 89.2987 332.279 89.4126V136.068C338.146 136.011 343.444 135.84 348.172 135.555C352.901 135.27 356.917 134.986 360.221 134.701C364.094 134.359 367.512 133.96 370.475 133.504L367.826 145.895C363.895 145.382 359.879 144.898 355.777 144.442C352.245 144.043 348.4 143.701 344.242 143.417C340.083 143.075 336.096 142.904 332.279 142.904V196.48C339.001 196.48 345.182 196.196 350.821 195.626C356.461 195.056 361.389 194.401 365.604 193.661C370.503 192.863 374.975 191.923 379.02 190.841L376.542 204.684C375.858 204.627 374.833 204.57 373.465 204.513C372.098 204.456 370.56 204.399 368.851 204.342C367.199 204.285 365.433 204.228 363.553 204.171C361.73 204.171 359.993 204.142 358.341 204.085C356.689 204.085 355.208 204.057 353.897 204C352.644 204 351.733 204 351.163 204H314.249V203.658C314.591 202.462 314.904 200.981 315.189 199.215C315.531 197.449 315.816 195.256 316.043 192.635C316.271 190.015 316.442 186.91 316.556 183.321C316.67 179.675 316.727 175.431 316.727 170.589V114.962C316.727 110.12 316.67 105.904 316.556 102.315C316.442 98.6696 316.271 95.5365 316.043 92.916C315.816 90.2386 315.531 88.0169 315.189 86.251C314.904 84.485 314.591 83.0039 314.249 81.8076V81.4658ZM418.07 170.589C418.07 175.431 418.127 179.675 418.241 183.321C418.412 186.91 418.583 190.015 418.753 192.635C418.981 195.256 419.238 197.449 419.522 199.215C419.864 200.981 420.206 202.462 420.548 203.658V204H400.04V203.658C400.382 202.462 400.695 200.981 400.98 199.215C401.322 197.449 401.607 195.256 401.834 192.635C402.062 190.015 402.233 186.91 402.347 183.321C402.461 179.675 402.518 175.431 402.518 170.589V114.962C402.518 110.12 402.461 105.904 402.347 102.315C402.233 98.6696 402.062 95.5365 401.834 92.916C401.607 90.2386 401.322 88.0169 400.98 86.251C400.695 84.485 400.382 83.0039 400.04 81.8076V81.4658C401.179 81.5798 402.376 81.6937 403.629 81.8076C404.711 81.9215 405.908 82.007 407.218 82.064C408.585 82.064 409.981 82.064 411.405 82.064C413.626 82.064 416.617 81.8076 420.377 81.2949C424.194 80.7253 429.036 80.4404 434.903 80.4404C440.372 80.4404 445.414 81.181 450.028 82.6621C454.699 84.1432 458.744 86.3079 462.162 89.1562C465.58 92.0046 468.229 95.508 470.108 99.6665C472.045 103.768 473.014 108.439 473.014 113.68C473.014 117.782 472.472 121.598 471.39 125.13C470.365 128.605 468.884 131.767 466.947 134.615C465.067 137.464 462.788 139.999 460.111 142.22C457.433 144.385 454.443 146.208 451.139 147.689L481.131 189.815C482.612 191.923 483.98 193.746 485.233 195.284C486.543 196.822 487.768 198.132 488.907 199.215C490.104 200.297 491.243 201.209 492.325 201.949C493.408 202.633 494.518 203.202 495.658 203.658V204H470.963C470.792 202.918 470.222 201.493 469.254 199.728C468.342 197.905 467.26 196.11 466.007 194.344L435.758 151.705C432.966 151.99 430.09 152.132 427.127 152.132C424.165 152.132 421.146 151.876 418.07 151.363V170.589ZM418.07 144.698C423.653 145.724 428.751 145.866 433.365 145.125C438.036 144.385 442.024 142.761 445.328 140.255C448.689 137.748 451.281 134.359 453.104 130.086C454.984 125.757 455.924 120.516 455.924 114.364C455.924 110.091 455.44 106.218 454.471 102.743C453.503 99.2677 452.05 96.334 450.113 93.9414C448.233 91.4919 445.841 89.612 442.936 88.3018C440.03 86.9346 436.641 86.251 432.767 86.251C430.318 86.251 428.181 86.3649 426.358 86.5928C424.535 86.7637 422.997 86.9631 421.744 87.1909C420.263 87.4757 419.038 87.7891 418.07 88.1309V144.698Z" fill="black"/>
<path d="M170.364 18.6045L180.13 42.3105L189.627 19.0439C190.001 18.0837 190.278 17.2699 190.457 16.6025C190.636 15.9352 190.726 15.3656 190.726 14.8936C190.726 14.7471 190.717 14.6006 190.701 14.4541C190.685 14.2913 190.66 14.1693 190.628 14.0879V13.9902H195.462V14.0879C195.136 14.446 194.778 15.0156 194.388 15.7969C194.013 16.5781 193.574 17.5465 193.069 18.7021L180.032 49.7568H178.177L168.68 26.71L160.013 49.7568H158.182L146.219 19.8984C145.926 19.1986 145.625 18.5231 145.315 17.8721C145.022 17.221 144.738 16.6351 144.461 16.1143C144.201 15.5934 143.965 15.154 143.753 14.7959C143.525 14.4378 143.362 14.2018 143.265 14.0879V13.9902H150.027V14.0879C149.995 14.2669 149.979 14.4053 149.979 14.5029C149.979 14.6006 149.979 14.7145 149.979 14.8447C149.979 15.3981 150.035 15.984 150.149 16.6025C150.28 17.221 150.524 17.9697 150.882 18.8486L160.062 42.042L168.826 18.7021L170.364 18.6045ZM197.464 22.7549C199.059 22.7549 200.695 22.7549 202.371 22.7549C204.048 22.7386 205.602 22.7223 207.034 22.7061C208.466 22.6735 209.695 22.641 210.721 22.6084C211.762 22.5758 212.446 22.527 212.771 22.4619L211.819 25.0986C211.38 24.9847 210.883 24.8789 210.33 24.7812C209.842 24.6999 209.248 24.6266 208.548 24.5615C207.864 24.4801 207.067 24.4395 206.155 24.4395C205.83 24.4395 205.455 24.4557 205.032 24.4883C204.609 24.5046 204.202 24.529 203.812 24.5615C203.356 24.5941 202.892 24.6266 202.42 24.6592V34.3027C203.738 34.2865 204.926 34.2539 205.984 34.2051C207.042 34.1562 207.946 34.0911 208.694 34.0098C209.573 33.9447 210.346 33.8551 211.014 33.7412L210.428 36.6465C209.533 36.5326 208.629 36.4349 207.718 36.3535C206.937 36.2721 206.074 36.207 205.13 36.1582C204.186 36.0931 203.283 36.0605 202.42 36.0605V47.1445C203.934 47.1445 205.325 47.0876 206.595 46.9736C207.864 46.8434 208.971 46.7051 209.915 46.5586C211.022 46.3796 212.023 46.1761 212.918 45.9482L212.356 49.1465C212.112 49.1302 211.714 49.1058 211.16 49.0732C210.623 49.057 210.053 49.0407 209.451 49.0244C208.865 49.0244 208.312 49.0163 207.791 49C207.27 49 206.912 49 206.717 49H197.464V48.9023C197.578 48.5605 197.675 48.1211 197.757 47.584C197.854 47.0469 197.928 46.3877 197.977 45.6064C198.042 44.8089 198.09 43.8649 198.123 42.7744C198.156 41.6839 198.172 40.4062 198.172 38.9414V32.7891C198.172 31.3242 198.156 30.0547 198.123 28.9805C198.09 27.89 198.042 26.9541 197.977 26.1729C197.928 25.3753 197.854 24.708 197.757 24.1709C197.675 23.6338 197.578 23.1943 197.464 22.8525V22.7549ZM223.318 47.0957C224.832 47.0957 226.224 47.0387 227.493 46.9248C228.779 46.7946 229.902 46.6562 230.862 46.5098C231.985 46.3307 233.003 46.1273 233.914 45.8994L233.353 49.1465C233.125 49.1302 232.734 49.1058 232.181 49.0732C231.644 49.057 231.074 49.0407 230.472 49.0244C229.869 49.0244 229.308 49.0163 228.787 49C228.266 49 227.908 49 227.713 49H218.362V48.9023C218.476 48.5605 218.574 48.1211 218.655 47.584C218.753 47.0469 218.826 46.3877 218.875 45.6064C218.94 44.8089 218.989 43.8649 219.021 42.7744C219.054 41.6839 219.07 40.4062 219.07 38.9414V32.7891C219.07 31.3242 219.054 30.0547 219.021 28.9805C218.989 27.89 218.94 26.9541 218.875 26.1729C218.826 25.3753 218.753 24.708 218.655 24.1709C218.574 23.6338 218.476 23.1943 218.362 22.8525V22.7549H224.002V22.8525C223.888 23.1943 223.79 23.6338 223.709 24.1709C223.628 24.708 223.554 25.3753 223.489 26.1729C223.44 26.9541 223.4 27.89 223.367 28.9805C223.335 30.0547 223.318 31.3242 223.318 32.7891V47.0957ZM260.184 43.5557L258.279 48.0967C257.807 48.3083 257.27 48.5036 256.668 48.6826C256.082 48.8454 255.472 48.9837 254.837 49.0977C254.202 49.2116 253.551 49.293 252.884 49.3418C252.233 49.4069 251.614 49.4395 251.028 49.4395C248.978 49.4395 247.073 49.1383 245.315 48.5361C243.574 47.9339 242.068 47.055 240.799 45.8994C239.529 44.7275 238.536 43.2952 237.82 41.6025C237.104 39.9098 236.746 37.973 236.746 35.792C236.746 33.8714 237.12 32.0892 237.869 30.4453C238.618 28.8014 239.651 27.3773 240.97 26.1729C242.288 24.9521 243.842 24 245.633 23.3164C247.439 22.6328 249.393 22.291 251.492 22.291C251.964 22.291 252.461 22.3154 252.981 22.3643C253.519 22.3968 254.048 22.4538 254.568 22.5352C255.089 22.6165 255.594 22.7142 256.082 22.8281C256.57 22.9258 257.026 23.0316 257.449 23.1455L259.28 27.54L258.987 27.7109C258.548 27.1738 258.019 26.6774 257.4 26.2217C256.798 25.766 256.131 25.3835 255.398 25.0742C254.682 24.7487 253.925 24.4964 253.128 24.3174C252.33 24.1383 251.517 24.0488 250.687 24.0488C249.336 24.0488 248.099 24.2848 246.976 24.7568C245.869 25.2288 244.917 25.9206 244.119 26.832C243.338 27.7272 242.728 28.8258 242.288 30.1279C241.849 31.43 241.629 32.903 241.629 34.5469C241.629 36.4023 241.84 38.1357 242.264 39.7471C242.687 41.3421 243.322 42.7337 244.168 43.9219C245.014 45.0938 246.072 46.0215 247.342 46.7051C248.611 47.3724 250.092 47.7061 251.785 47.7061C252.599 47.7061 253.396 47.6084 254.178 47.4131C254.975 47.2015 255.724 46.9085 256.424 46.5342C257.14 46.1598 257.791 45.7122 258.377 45.1914C258.963 44.6543 259.467 44.0602 259.891 43.4092L260.184 43.5557ZM262.771 35.792C262.771 33.8714 263.13 32.0892 263.846 30.4453C264.578 28.8014 265.571 27.3773 266.824 26.1729C268.077 24.9521 269.559 24 271.268 23.3164C272.977 22.6328 274.808 22.291 276.761 22.291C278.681 22.291 280.488 22.6165 282.181 23.2676C283.89 23.9023 285.371 24.8138 286.624 26.002C287.894 27.1901 288.895 28.6305 289.627 30.3232C290.359 32.016 290.726 33.9121 290.726 36.0117C290.726 37.7533 290.416 39.4378 289.798 41.0654C289.179 42.6768 288.276 44.109 287.088 45.3623C285.9 46.5993 284.435 47.5921 282.693 48.3408C280.952 49.0732 278.958 49.4395 276.712 49.4395C274.808 49.4395 273.009 49.1221 271.316 48.4873C269.624 47.8525 268.143 46.9492 266.873 45.7773C265.604 44.5892 264.603 43.1569 263.87 41.4805C263.138 39.7878 262.771 37.8916 262.771 35.792ZM277.322 47.7061C278.559 47.7061 279.699 47.4619 280.74 46.9736C281.782 46.4854 282.677 45.7855 283.426 44.874C284.191 43.9626 284.777 42.8558 285.184 41.5537C285.607 40.2354 285.818 38.7542 285.818 37.1104C285.818 35.2386 285.615 33.5052 285.208 31.9102C284.817 30.3151 284.215 28.9398 283.401 27.7842C282.604 26.6123 281.603 25.7008 280.398 25.0498C279.194 24.3825 277.786 24.0488 276.175 24.0488C274.938 24.0488 273.799 24.2848 272.757 24.7568C271.715 25.2288 270.812 25.9124 270.047 26.8076C269.298 27.7028 268.712 28.8014 268.289 30.1035C267.866 31.4056 267.654 32.8867 267.654 34.5469C267.654 36.4023 267.858 38.1357 268.265 39.7471C268.688 41.3421 269.298 42.7337 270.096 43.9219C270.91 45.0938 271.919 46.0215 273.123 46.7051C274.327 47.3724 275.727 47.7061 277.322 47.7061ZM293.997 48.9023C294.209 48.6745 294.42 48.2594 294.632 47.6572C294.86 47.055 295.039 46.404 295.169 45.7041C295.364 44.5648 295.576 43.2708 295.804 41.8223C296.048 40.3574 296.284 38.8519 296.512 37.3057C296.756 35.7594 296.992 34.2214 297.22 32.6914C297.448 31.1452 297.659 29.7129 297.854 28.3945C298.05 27.0762 298.213 25.9206 298.343 24.9277C298.473 23.9349 298.562 23.2106 298.611 22.7549H301.517L313.162 43.6045L325.101 22.7549H327.469L330.398 43.1406C330.545 44.0684 330.683 44.8577 330.813 45.5088C330.96 46.1598 331.098 46.7132 331.229 47.1689C331.359 47.6084 331.489 47.9665 331.619 48.2432C331.749 48.5199 331.863 48.7396 331.961 48.9023V49H325.955V48.9023C326.004 48.7721 326.061 48.5524 326.126 48.2432C326.207 47.9339 326.248 47.5677 326.248 47.1445C326.248 46.8678 326.224 46.4691 326.175 45.9482C326.142 45.4274 326.085 44.9147 326.004 44.4102L323.904 29.4443L312.796 48.9512L311.062 48.707L300.149 29.2979C299.743 32.0322 299.384 34.5632 299.075 36.8906C298.945 37.8835 298.815 38.8763 298.685 39.8691C298.554 40.862 298.44 41.7979 298.343 42.6768C298.245 43.5394 298.164 44.3044 298.099 44.9717C298.034 45.639 298.001 46.1354 298.001 46.4609C298.001 46.8678 298.009 47.2259 298.025 47.5352C298.042 47.8281 298.066 48.0885 298.099 48.3164C298.131 48.5768 298.164 48.8047 298.196 49H293.997V48.9023ZM337.161 22.7549C338.756 22.7549 340.392 22.7549 342.068 22.7549C343.745 22.7386 345.299 22.7223 346.731 22.7061C348.164 22.6735 349.393 22.641 350.418 22.6084C351.46 22.5758 352.143 22.527 352.469 22.4619L351.517 25.0986C351.077 24.9847 350.581 24.8789 350.027 24.7812C349.539 24.6999 348.945 24.6266 348.245 24.5615C347.562 24.4801 346.764 24.4395 345.853 24.4395C345.527 24.4395 345.153 24.4557 344.729 24.4883C344.306 24.5046 343.899 24.529 343.509 24.5615C343.053 24.5941 342.589 24.6266 342.117 24.6592V34.3027C343.436 34.2865 344.624 34.2539 345.682 34.2051C346.74 34.1562 347.643 34.0911 348.392 34.0098C349.271 33.9447 350.044 33.8551 350.711 33.7412L350.125 36.6465C349.23 36.5326 348.326 36.4349 347.415 36.3535C346.634 36.2721 345.771 36.207 344.827 36.1582C343.883 36.0931 342.98 36.0605 342.117 36.0605V47.1445C343.631 47.1445 345.022 47.0876 346.292 46.9736C347.562 46.8434 348.668 46.7051 349.612 46.5586C350.719 46.3796 351.72 46.1761 352.615 45.9482L352.054 49.1465C351.81 49.1302 351.411 49.1058 350.857 49.0732C350.32 49.057 349.751 49.0407 349.148 49.0244C348.562 49.0244 348.009 49.0163 347.488 49C346.967 49 346.609 49 346.414 49H337.161V48.9023C337.275 48.5605 337.373 48.1211 337.454 47.584C337.552 47.0469 337.625 46.3877 337.674 45.6064C337.739 44.8089 337.788 43.8649 337.82 42.7744C337.853 41.6839 337.869 40.4062 337.869 38.9414V32.7891C337.869 31.3242 337.853 30.0547 337.82 28.9805C337.788 27.89 337.739 26.9541 337.674 26.1729C337.625 25.3753 337.552 24.708 337.454 24.1709C337.373 23.6338 337.275 23.1943 337.161 22.8525V22.7549ZM379.764 24.5615C378.283 24.5615 376.932 24.6266 375.711 24.7568C374.507 24.887 373.465 25.0254 372.586 25.1719C371.577 25.3509 370.665 25.5462 369.852 25.7578L370.34 22.6084C370.584 22.641 370.983 22.6654 371.536 22.6816C372.09 22.6979 372.667 22.7142 373.27 22.7305C373.888 22.7305 374.466 22.7386 375.003 22.7549C375.556 22.7549 375.939 22.7549 376.15 22.7549H387.698C387.894 22.7549 388.252 22.7549 388.772 22.7549C389.31 22.7386 389.879 22.7305 390.481 22.7305C391.084 22.7142 391.661 22.6979 392.215 22.6816C392.768 22.6654 393.167 22.641 393.411 22.6084L393.899 25.7578C393.118 25.5462 392.223 25.3509 391.214 25.1719C390.351 25.0254 389.31 24.887 388.089 24.7568C386.884 24.6266 385.525 24.5615 384.012 24.5615V38.9414C384.012 40.4062 384.028 41.6839 384.061 42.7744C384.093 43.8649 384.134 44.8089 384.183 45.6064C384.248 46.3877 384.321 47.0469 384.402 47.584C384.484 48.1211 384.581 48.5605 384.695 48.9023V49H379.056V48.9023C379.17 48.5605 379.267 48.1211 379.349 47.584C379.43 47.0469 379.503 46.3877 379.568 45.6064C379.633 44.8089 379.682 43.8649 379.715 42.7744C379.747 41.6839 379.764 40.4062 379.764 38.9414V24.5615ZM395.242 35.792C395.242 33.8714 395.6 32.0892 396.316 30.4453C397.049 28.8014 398.042 27.3773 399.295 26.1729C400.548 24.9521 402.029 24 403.738 23.3164C405.447 22.6328 407.278 22.291 409.231 22.291C411.152 22.291 412.959 22.6165 414.651 23.2676C416.36 23.9023 417.841 24.8138 419.095 26.002C420.364 27.1901 421.365 28.6305 422.098 30.3232C422.83 32.016 423.196 33.9121 423.196 36.0117C423.196 37.7533 422.887 39.4378 422.269 41.0654C421.65 42.6768 420.747 44.109 419.559 45.3623C418.37 46.5993 416.906 47.5921 415.164 48.3408C413.423 49.0732 411.429 49.4395 409.183 49.4395C407.278 49.4395 405.48 49.1221 403.787 48.4873C402.094 47.8525 400.613 46.9492 399.344 45.7773C398.074 44.5892 397.073 43.1569 396.341 41.4805C395.608 39.7878 395.242 37.8916 395.242 35.792ZM409.793 47.7061C411.03 47.7061 412.169 47.4619 413.211 46.9736C414.253 46.4854 415.148 45.7855 415.896 44.874C416.661 43.9626 417.247 42.8558 417.654 41.5537C418.077 40.2354 418.289 38.7542 418.289 37.1104C418.289 35.2386 418.086 33.5052 417.679 31.9102C417.288 30.3151 416.686 28.9398 415.872 27.7842C415.075 26.6123 414.074 25.7008 412.869 25.0498C411.665 24.3825 410.257 24.0488 408.646 24.0488C407.409 24.0488 406.269 24.2848 405.228 24.7568C404.186 25.2288 403.283 25.9124 402.518 26.8076C401.769 27.7028 401.183 28.8014 400.76 30.1035C400.337 31.4056 400.125 32.8867 400.125 34.5469C400.125 36.4023 400.328 38.1357 400.735 39.7471C401.159 41.3421 401.769 42.7337 402.566 43.9219C403.38 45.0938 404.389 46.0215 405.594 46.7051C406.798 47.3724 408.198 47.7061 409.793 47.7061Z" fill="black"/>
<path d="M56.1791 249.95L56.1291 251.9L53.3791 252C52.9791 254.333 52.3291 256.217 51.4291 257.65C50.5624 259.083 49.0958 260.633 47.0291 262.3C44.9624 263.967 42.4791 265.35 39.5791 266.45C36.7124 267.583 34.3124 268.15 32.3791 268.15C30.4458 268.15 28.9791 267.75 27.9791 266.95C26.9791 266.183 26.4791 265.167 26.4791 263.9C26.4791 261.967 27.6124 260.033 29.8791 258.1C32.1791 256.133 34.9458 254.5 38.1791 253.2C41.4458 251.867 44.6791 250.967 47.8791 250.5C47.3791 249.667 46.6124 248.983 45.5791 248.45C44.5791 247.917 42.8624 247.317 40.4291 246.65C39.0958 246.283 38.4291 245.683 38.4291 244.85C38.4291 244.35 38.6291 243.9 39.0291 243.5C39.4624 243.067 40.1624 242.567 41.1291 242C42.1291 241.4 43.0624 240.8 43.9291 240.2C44.8291 239.567 45.8124 238.817 46.8791 237.95C47.9791 237.083 48.8958 236.183 49.6291 235.25C50.3624 234.317 50.7291 233.5 50.7291 232.8C50.7291 231.633 50.1458 231.05 48.9791 231.05C48.0791 231.05 46.8458 231.483 45.2791 232.35C43.7458 233.183 42.2291 234.267 40.7291 235.6L38.5791 242.4C37.0791 247.167 35.4124 250.867 33.5791 253.5C31.7791 256.133 30.0624 257.45 28.4291 257.45C26.6958 257.45 25.8291 256.383 25.8291 254.25C25.8291 252.117 26.8624 249.4 28.9291 246.1C30.9958 242.767 33.8624 239.35 37.5291 235.85C37.5291 235.817 37.6124 235.517 37.7791 234.95C37.9791 234.35 38.1624 233.75 38.3291 233.15C38.8958 231.35 39.3291 230.2 39.6291 229.7L42.0791 230.1C42.0791 230.733 41.9458 231.483 41.6791 232.35C43.5458 230.95 45.5124 229.733 47.5791 228.7C49.6791 227.633 51.2124 227.1 52.1791 227.1C53.1791 227.1 53.9791 227.417 54.5791 228.05C55.1791 228.65 55.4791 229.55 55.4791 230.75C55.4791 231.917 54.9124 233.267 53.7791 234.8C52.6791 236.333 51.2958 237.717 49.6291 238.95C46.5958 241.217 44.0124 242.85 41.8791 243.85C45.3458 244.383 47.8791 245.1 49.4791 246C51.0791 246.867 52.2458 248.183 52.9791 249.95H56.1791ZM31.8791 251.1C34.2124 247.333 35.7624 243.467 36.5291 239.5C34.7291 241.467 33.0958 243.717 31.6291 246.25C30.1624 248.783 29.4291 250.617 29.4291 251.75C29.4291 252.45 29.6624 252.8 30.1291 252.8C30.6291 252.8 31.2124 252.233 31.8791 251.1ZM43.4791 261.8C45.1124 260.7 46.4124 259.467 47.3791 258.1C48.3458 256.733 48.8291 255.45 48.8291 254.25C48.8291 253.683 48.7458 253.117 48.5791 252.55C43.5791 253.15 39.4624 254.467 36.2291 256.5C32.9958 258.5 31.3791 260.417 31.3791 262.25C31.3791 263.05 31.6958 263.683 32.3291 264.15C32.9624 264.65 33.8291 264.9 34.9291 264.9C37.6291 264.9 40.4791 263.867 43.4791 261.8ZM74.9287 244.15C75.7954 245.583 76.2287 247.167 76.2287 248.9C76.2287 251.6 75.2954 254.017 73.4287 256.15C71.562 258.25 69.362 259.3 66.8287 259.3C64.8954 259.3 63.3787 258.75 62.2787 257.65C61.212 256.517 60.6787 254.967 60.6787 253C60.6787 249.833 61.912 247 64.3787 244.5C66.8454 241.967 69.612 240.7 72.6787 240.7C73.2454 240.7 73.6454 240.717 73.8787 240.75L74.0287 242.4C71.362 242.4 69.1454 243.167 67.3787 244.7C65.612 246.233 64.7287 248.2 64.7287 250.6C64.7287 252.033 65.0787 253.2 65.7787 254.1C66.4787 254.967 67.4954 255.4 68.8287 255.4C70.1954 255.4 71.2787 254.8 72.0787 253.6C72.8787 252.4 73.2787 251 73.2787 249.4C73.2787 247.767 72.962 246.283 72.3287 244.95L74.9287 244.15ZM93.9814 244.15C94.8481 245.583 95.2814 247.167 95.2814 248.9C95.2814 251.6 94.3481 254.017 92.4814 256.15C90.6148 258.25 88.4148 259.3 85.8814 259.3C83.9481 259.3 82.4314 258.75 81.3314 257.65C80.2648 256.517 79.7314 254.967 79.7314 253C79.7314 249.833 80.9648 247 83.4314 244.5C85.8981 241.967 88.6648 240.7 91.7314 240.7C92.2981 240.7 92.6981 240.717 92.9314 240.75L93.0814 242.4C90.4148 242.4 88.1981 243.167 86.4314 244.7C84.6648 246.233 83.7814 248.2 83.7814 250.6C83.7814 252.033 84.1314 253.2 84.8314 254.1C85.5314 254.967 86.5481 255.4 87.8814 255.4C89.2481 255.4 90.3314 254.8 91.1314 253.6C91.9314 252.4 92.3314 251 92.3314 249.4C92.3314 247.767 92.0148 246.283 91.3814 244.95L93.9814 244.15ZM118.984 253.9L120.234 255C118.301 258.167 116.251 259.75 114.084 259.75C112.751 259.75 111.384 258.767 109.984 256.8C108.584 254.833 107.884 253.217 107.884 251.95C107.884 251.15 109.084 250.35 111.484 249.55C112.384 249.25 113.201 248.8 113.934 248.2C114.701 247.567 115.084 246.917 115.084 246.25C115.084 245.583 114.901 245.083 114.534 244.75C114.168 244.383 113.701 244.2 113.134 244.2C109.468 244.533 105.634 249.467 101.634 259L98.5842 257.95C98.5842 256.517 100.518 250.717 104.384 240.55C108.284 230.383 111.051 224.233 112.684 222.1L115.134 223C110.634 230.833 106.868 239.933 103.834 250.3C106.434 246.4 108.668 243.8 110.534 242.5C112.401 241.2 114.184 240.55 115.884 240.55C116.918 240.55 117.734 240.867 118.334 241.5C118.968 242.133 119.284 242.95 119.284 243.95C119.284 244.917 119.034 245.8 118.534 246.6C118.068 247.4 117.384 248.1 116.484 248.7C115.184 249.567 113.584 250.417 111.684 251.25C111.984 252.817 112.501 254 113.234 254.8C113.968 255.6 114.801 256 115.734 256C116.234 256 117.318 255.3 118.984 253.9ZM140.29 239.45L139.84 241.4C139.274 241.333 138.54 241.3 137.64 241.3C134.307 241.3 132.64 242.4 132.64 244.6C132.64 245.067 133.307 246.433 134.64 248.7C136.007 250.967 136.69 252.483 136.69 253.25C136.69 255.05 136.074 256.467 134.84 257.5C133.64 258.5 132.024 259 129.99 259C127.19 259 124.94 257.45 123.24 254.35L125.14 253C125.607 253.367 126.107 253.817 126.64 254.35C127.174 254.85 127.574 255.2 127.84 255.4C128.474 255.967 129.174 256.25 129.94 256.25C130.707 256.25 131.374 255.983 131.94 255.45C132.507 254.883 132.79 254.2 132.79 253.4C132.79 252.567 132.057 251.033 130.59 248.8C129.157 246.567 128.44 245 128.44 244.1C128.44 242.467 129.124 241.217 130.49 240.35C131.89 239.483 133.707 239.05 135.94 239.05C138.207 239.05 139.657 239.183 140.29 239.45ZM142.393 257.35C142.393 256.75 142.61 256.25 143.043 255.85C143.51 255.417 144.06 255.2 144.693 255.2C145.36 255.2 145.876 255.4 146.243 255.8C146.61 256.167 146.793 256.667 146.793 257.3C146.793 258.767 145.526 260.417 142.993 262.25L141.893 260.65C143.226 259.583 143.91 259.017 143.943 258.95C142.91 258.617 142.393 258.083 142.393 257.35ZM210.056 249.95L210.006 251.9L207.256 252C206.856 254.333 206.206 256.217 205.306 257.65C204.439 259.083 202.973 260.633 200.906 262.3C198.839 263.967 196.356 265.35 193.456 266.45C190.589 267.583 188.189 268.15 186.256 268.15C184.323 268.15 182.856 267.75 181.856 266.95C180.856 266.183 180.356 265.167 180.356 263.9C180.356 261.967 181.489 260.033 183.756 258.1C186.056 256.133 188.823 254.5 192.056 253.2C195.323 251.867 198.556 250.967 201.756 250.5C201.256 249.667 200.489 248.983 199.456 248.45C198.456 247.917 196.739 247.317 194.306 246.65C192.973 246.283 192.306 245.683 192.306 244.85C192.306 244.35 192.506 243.9 192.906 243.5C193.339 243.067 194.039 242.567 195.006 242C196.006 241.4 196.939 240.8 197.806 240.2C198.706 239.567 199.689 238.817 200.756 237.95C201.856 237.083 202.773 236.183 203.506 235.25C204.239 234.317 204.606 233.5 204.606 232.8C204.606 231.633 204.023 231.05 202.856 231.05C201.956 231.05 200.723 231.483 199.156 232.35C197.623 233.183 196.106 234.267 194.606 235.6L192.456 242.4C190.956 247.167 189.289 250.867 187.456 253.5C185.656 256.133 183.939 257.45 182.306 257.45C180.573 257.45 179.706 256.383 179.706 254.25C179.706 252.117 180.739 249.4 182.806 246.1C184.873 242.767 187.739 239.35 191.406 235.85C191.406 235.817 191.489 235.517 191.656 234.95C191.856 234.35 192.039 233.75 192.206 233.15C192.773 231.35 193.206 230.2 193.506 229.7L195.956 230.1C195.956 230.733 195.823 231.483 195.556 232.35C197.423 230.95 199.389 229.733 201.456 228.7C203.556 227.633 205.089 227.1 206.056 227.1C207.056 227.1 207.856 227.417 208.456 228.05C209.056 228.65 209.356 229.55 209.356 230.75C209.356 231.917 208.789 233.267 207.656 234.8C206.556 236.333 205.173 237.717 203.506 238.95C200.473 241.217 197.889 242.85 195.756 243.85C199.223 244.383 201.756 245.1 203.356 246C204.956 246.867 206.123 248.183 206.856 249.95H210.056ZM185.756 251.1C188.089 247.333 189.639 243.467 190.406 239.5C188.606 241.467 186.973 243.717 185.506 246.25C184.039 248.783 183.306 250.617 183.306 251.75C183.306 252.45 183.539 252.8 184.006 252.8C184.506 252.8 185.089 252.233 185.756 251.1ZM197.356 261.8C198.989 260.7 200.289 259.467 201.256 258.1C202.223 256.733 202.706 255.45 202.706 254.25C202.706 253.683 202.623 253.117 202.456 252.55C197.456 253.15 193.339 254.467 190.106 256.5C186.873 258.5 185.256 260.417 185.256 262.25C185.256 263.05 185.573 263.683 186.206 264.15C186.839 264.65 187.706 264.9 188.806 264.9C191.506 264.9 194.356 263.867 197.356 261.8ZM235.106 255.85L235.256 257.15C235.122 257.25 233.572 257.85 230.606 258.95C230.206 261.15 229.689 263.317 229.056 265.45C228.456 267.617 227.839 269.25 227.206 270.35C226.606 271.483 225.889 272.6 225.056 273.7C223.389 275.9 221.139 277 218.306 277C216.906 277 215.789 276.567 214.956 275.7C214.122 274.833 213.706 273.65 213.706 272.15C213.706 266.383 218.539 261.75 228.206 258.25L230.906 248.75C228.039 253.05 225.456 255.7 223.156 256.7C222.022 257.233 220.822 257.5 219.556 257.5C218.322 257.5 217.322 257.1 216.556 256.3C215.822 255.5 215.456 254.333 215.456 252.8C215.456 251.267 215.972 249.133 217.006 246.4C218.072 243.633 219.256 241.317 220.556 239.45L223.006 240.5C222.906 240.6 222.439 241.483 221.606 243.15C220.139 246.183 219.406 248.433 219.406 249.9C219.406 251.367 219.689 252.35 220.256 252.85C220.822 253.35 221.656 253.6 222.756 253.6C223.856 253.6 225.089 252.95 226.456 251.65C227.856 250.317 230.006 247.7 232.906 243.8L234.706 244.85C234.439 245.95 233.839 247.95 232.906 250.85C232.006 253.717 231.389 255.917 231.056 257.45L235.106 255.85ZM227.906 259.75C225.806 260.717 223.956 261.817 222.356 263.05C219.356 265.317 217.856 267.517 217.856 269.65C217.856 270.45 218.089 271.1 218.556 271.6C219.022 272.1 219.606 272.35 220.306 272.35C223.639 272.35 226.172 268.15 227.906 259.75ZM251.314 253.4L252.414 254.65C251.581 255.95 250.564 256.967 249.364 257.7C248.198 258.433 247.014 258.8 245.814 258.8C244.614 258.8 243.664 258.467 242.964 257.8C242.264 257.1 241.914 256.15 241.914 254.95C241.914 252.15 242.964 248.283 245.064 243.35C243.364 243.617 241.664 244.017 239.964 244.55L239.614 242.6L239.564 242.55C241.231 241.85 243.414 241.283 246.114 240.85C246.381 240.35 246.981 239.133 247.914 237.2C249.781 233.367 251.114 230.883 251.914 229.75L254.064 230.6C253.731 231.333 253.148 232.567 252.314 234.3C251.481 236 250.548 237.933 249.514 240.1C251.014 240 252.198 239.95 253.064 239.95C253.931 239.95 254.598 240.083 255.064 240.35V242.5C254.598 242.4 253.914 242.35 253.014 242.35C252.148 242.35 250.581 242.5 248.314 242.8C246.348 247.2 245.364 250.4 245.364 252.4C245.364 253.167 245.598 253.8 246.064 254.3C246.564 254.8 247.214 255.05 248.014 255.05C248.848 255.05 249.948 254.5 251.314 253.4ZM272.618 253.1L273.768 254C272.735 255.433 271.318 256.633 269.518 257.6C267.718 258.533 265.968 259 264.268 259C262.568 259 261.201 258.5 260.168 257.5C259.135 256.5 258.618 255.183 258.618 253.55C258.618 250.483 260.235 247.467 263.468 244.5C266.735 241.533 270.035 240.05 273.368 240.05C275.568 240.05 276.668 240.917 276.668 242.65C276.668 244.45 275.501 246.267 273.168 248.1C270.868 249.933 267.618 251.6 263.418 253.1C263.718 253.867 264.185 254.467 264.818 254.9C265.451 255.333 266.101 255.55 266.768 255.55C268.201 255.55 270.151 254.733 272.618 253.1ZM263.168 251.6C265.868 250.667 268.185 249.5 270.118 248.1C272.051 246.7 273.018 245.417 273.018 244.25C273.018 243.817 272.851 243.433 272.518 243.1C272.185 242.767 271.801 242.6 271.368 242.6C269.801 242.6 268.101 243.583 266.268 245.55C264.468 247.483 263.435 249.5 263.168 251.6ZM295.29 239.45L294.84 241.4C294.274 241.333 293.54 241.3 292.64 241.3C289.307 241.3 287.64 242.4 287.64 244.6C287.64 245.067 288.307 246.433 289.64 248.7C291.007 250.967 291.69 252.483 291.69 253.25C291.69 255.05 291.074 256.467 289.84 257.5C288.64 258.5 287.024 259 284.99 259C282.19 259 279.94 257.45 278.24 254.35L280.14 253C280.607 253.367 281.107 253.817 281.64 254.35C282.174 254.85 282.574 255.2 282.84 255.4C283.474 255.967 284.174 256.25 284.94 256.25C285.707 256.25 286.374 255.983 286.94 255.45C287.507 254.883 287.79 254.2 287.79 253.4C287.79 252.567 287.057 251.033 285.59 248.8C284.157 246.567 283.44 245 283.44 244.1C283.44 242.467 284.124 241.217 285.49 240.35C286.89 239.483 288.707 239.05 290.94 239.05C293.207 239.05 294.657 239.183 295.29 239.45ZM297.393 257.35C297.393 256.75 297.61 256.25 298.043 255.85C298.51 255.417 299.06 255.2 299.693 255.2C300.36 255.2 300.876 255.4 301.243 255.8C301.61 256.167 301.793 256.667 301.793 257.3C301.793 258.767 300.526 260.417 297.993 262.25L296.893 260.65C298.226 259.583 298.91 259.017 298.943 258.95C297.91 258.617 297.393 258.083 297.393 257.35ZM365.056 249.95L365.006 251.9L362.256 252C361.856 254.333 361.206 256.217 360.306 257.65C359.439 259.083 357.973 260.633 355.906 262.3C353.839 263.967 351.356 265.35 348.456 266.45C345.589 267.583 343.189 268.15 341.256 268.15C339.323 268.15 337.856 267.75 336.856 266.95C335.856 266.183 335.356 265.167 335.356 263.9C335.356 261.967 336.489 260.033 338.756 258.1C341.056 256.133 343.823 254.5 347.056 253.2C350.323 251.867 353.556 250.967 356.756 250.5C356.256 249.667 355.489 248.983 354.456 248.45C353.456 247.917 351.739 247.317 349.306 246.65C347.973 246.283 347.306 245.683 347.306 244.85C347.306 244.35 347.506 243.9 347.906 243.5C348.339 243.067 349.039 242.567 350.006 242C351.006 241.4 351.939 240.8 352.806 240.2C353.706 239.567 354.689 238.817 355.756 237.95C356.856 237.083 357.773 236.183 358.506 235.25C359.239 234.317 359.606 233.5 359.606 232.8C359.606 231.633 359.023 231.05 357.856 231.05C356.956 231.05 355.723 231.483 354.156 232.35C352.623 233.183 351.106 234.267 349.606 235.6L347.456 242.4C345.956 247.167 344.289 250.867 342.456 253.5C340.656 256.133 338.939 257.45 337.306 257.45C335.573 257.45 334.706 256.383 334.706 254.25C334.706 252.117 335.739 249.4 337.806 246.1C339.873 242.767 342.739 239.35 346.406 235.85C346.406 235.817 346.489 235.517 346.656 234.95C346.856 234.35 347.039 233.75 347.206 233.15C347.773 231.35 348.206 230.2 348.506 229.7L350.956 230.1C350.956 230.733 350.823 231.483 350.556 232.35C352.423 230.95 354.389 229.733 356.456 228.7C358.556 227.633 360.089 227.1 361.056 227.1C362.056 227.1 362.856 227.417 363.456 228.05C364.056 228.65 364.356 229.55 364.356 230.75C364.356 231.917 363.789 233.267 362.656 234.8C361.556 236.333 360.173 237.717 358.506 238.95C355.473 241.217 352.889 242.85 350.756 243.85C354.223 244.383 356.756 245.1 358.356 246C359.956 246.867 361.123 248.183 361.856 249.95H365.056ZM340.756 251.1C343.089 247.333 344.639 243.467 345.406 239.5C343.606 241.467 341.973 243.717 340.506 246.25C339.039 248.783 338.306 250.617 338.306 251.75C338.306 252.45 338.539 252.8 339.006 252.8C339.506 252.8 340.089 252.233 340.756 251.1ZM352.356 261.8C353.989 260.7 355.289 259.467 356.256 258.1C357.223 256.733 357.706 255.45 357.706 254.25C357.706 253.683 357.623 253.117 357.456 252.55C352.456 253.15 348.339 254.467 345.106 256.5C341.873 258.5 340.256 260.417 340.256 262.25C340.256 263.05 340.573 263.683 341.206 264.15C341.839 264.65 342.706 264.9 343.806 264.9C346.506 264.9 349.356 263.867 352.356 261.8ZM383.556 241.3C384.389 241.3 385.072 241.583 385.606 242.15C386.139 242.717 386.406 243.45 386.406 244.35C386.406 246.15 385.372 248.05 383.306 250.05L382.106 249.1C382.572 248.067 382.806 247.317 382.806 246.85C382.806 245.95 382.306 245.5 381.306 245.5C380.306 245.5 379.356 246.133 378.456 247.4C377.556 248.667 376.489 250.633 375.256 253.3C374.056 255.933 373.139 257.8 372.506 258.9L369.656 257.65C371.489 253.483 372.539 251.033 372.806 250.3C373.706 247.7 374.156 244.4 374.156 240.4L376.956 239.65C376.856 241.817 376.706 243.5 376.506 244.7C376.306 245.867 375.822 247.783 375.056 250.45C378.422 244.35 381.256 241.3 383.556 241.3ZM400.029 237.8C398.162 237.8 397.229 237.05 397.229 235.55C397.229 234.717 397.462 234.017 397.929 233.45C398.396 232.883 398.996 232.6 399.729 232.6C400.462 232.6 401.062 232.817 401.529 233.25C401.996 233.683 402.229 234.25 402.229 234.95C402.229 235.65 402.029 236.3 401.629 236.9C401.229 237.5 400.696 237.8 400.029 237.8ZM399.379 252.55L400.379 253.4C399.579 254.933 398.512 256.25 397.179 257.35C395.879 258.417 394.696 258.95 393.629 258.95C391.762 258.95 390.829 257.65 390.829 255.05C390.829 251.817 392.162 247.6 394.829 242.4C395.429 241.267 395.779 240.6 395.879 240.4L398.029 241.7C397.329 242.967 396.462 244.983 395.429 247.75C394.429 250.517 393.929 252.3 393.929 253.1C393.929 253.867 394.096 254.417 394.429 254.75C394.762 255.083 395.162 255.25 395.629 255.25C396.529 255.25 397.779 254.35 399.379 252.55ZM413.508 254.2L414.558 255.05C413.425 256.817 412.441 258.1 411.608 258.9C410.808 259.667 409.908 260.05 408.908 260.05C407.908 260.05 407.091 259.65 406.458 258.85C405.825 258.05 405.508 257.05 405.508 255.85C405.508 253.517 407.041 248.5 410.108 240.8C413.175 233.067 416.325 226.267 419.558 220.4L421.758 221.6C418.491 227.933 415.541 234.233 412.908 240.5C410.275 246.733 408.958 251.217 408.958 253.95C408.958 255.517 409.541 256.3 410.708 256.3C411.641 256.3 412.575 255.6 413.508 254.2ZM429.582 254.2L430.632 255.05C429.499 256.817 428.516 258.1 427.682 258.9C426.882 259.667 425.982 260.05 424.982 260.05C423.982 260.05 423.166 259.65 422.532 258.85C421.899 258.05 421.582 257.05 421.582 255.85C421.582 253.517 423.116 248.5 426.182 240.8C429.249 233.067 432.399 226.267 435.632 220.4L437.832 221.6C434.566 227.933 431.616 234.233 428.982 240.5C426.349 246.733 425.032 251.217 425.032 253.95C425.032 255.517 425.616 256.3 426.782 256.3C427.716 256.3 428.649 255.6 429.582 254.2ZM448.056 237.8C446.19 237.8 445.256 237.05 445.256 235.55C445.256 234.717 445.49 234.017 445.956 233.45C446.423 232.883 447.023 232.6 447.756 232.6C448.49 232.6 449.09 232.817 449.556 233.25C450.023 233.683 450.256 234.25 450.256 234.95C450.256 235.65 450.056 236.3 449.656 236.9C449.256 237.5 448.723 237.8 448.056 237.8ZM447.406 252.55L448.406 253.4C447.606 254.933 446.54 256.25 445.206 257.35C443.906 258.417 442.723 258.95 441.656 258.95C439.79 258.95 438.856 257.65 438.856 255.05C438.856 251.817 440.19 247.6 442.856 242.4C443.456 241.267 443.806 240.6 443.906 240.4L446.056 241.7C445.356 242.967 444.49 244.983 443.456 247.75C442.456 250.517 441.956 252.3 441.956 253.1C441.956 253.867 442.123 254.417 442.456 254.75C442.79 255.083 443.19 255.25 443.656 255.25C444.556 255.25 445.806 254.35 447.406 252.55ZM475.185 253.95L476.335 254.8C475.869 255.8 475.002 256.75 473.735 257.65C472.502 258.55 471.369 259 470.335 259C468.369 259 467.385 257.967 467.385 255.9C467.385 254.933 467.635 253.783 468.135 252.45L466.285 254.35C464.485 256.183 462.919 257.417 461.585 258.05C460.285 258.683 459.002 259 457.735 259C456.469 259 455.502 258.65 454.835 257.95C454.202 257.217 453.885 256.217 453.885 254.95C453.885 252.617 454.785 250.317 456.585 248.05C458.385 245.75 460.685 243.883 463.485 242.45C466.285 241.017 469.085 240.283 471.885 240.25L471.985 241.9L469.885 242.35C466.852 243.017 464.169 244.35 461.835 246.35C459.535 248.35 458.385 250.35 458.385 252.35C458.385 254.317 459.185 255.3 460.785 255.3C462.285 255.3 464.135 254.25 466.335 252.15C468.535 250.05 470.369 247.583 471.835 244.75L473.935 246C471.869 250.167 470.835 252.817 470.835 253.95C470.835 254.417 470.985 254.817 471.285 255.15C471.619 255.45 471.935 255.6 472.235 255.6C472.569 255.6 472.785 255.583 472.885 255.55C472.985 255.517 473.085 255.483 473.185 255.45C473.285 255.383 473.402 255.3 473.535 255.2C473.702 255.1 473.835 255 473.935 254.9C474.069 254.8 474.269 254.65 474.535 254.45C474.802 254.25 475.019 254.083 475.185 253.95ZM500.623 252.95L501.673 253.75C500.94 255.217 499.923 256.45 498.623 257.45C497.356 258.45 496.206 258.95 495.173 258.95C494.14 258.95 493.323 258.65 492.723 258.05C492.123 257.45 491.823 256.7 491.823 255.8C491.823 254.9 492.39 253.333 493.523 251.1C494.69 248.833 495.273 247.167 495.273 246.1C495.273 245.633 495.073 245.217 494.673 244.85C494.306 244.45 493.856 244.25 493.323 244.25C491.623 244.25 489.906 245.55 488.173 248.15C486.44 250.717 484.506 254.433 482.373 259.3L479.373 258.25C480.006 254.383 480.906 250.617 482.073 246.95C483.273 243.25 484.373 240.6 485.373 239L487.423 239.65C486.49 242.017 485.306 246.1 483.873 251.9C488.473 244.033 492.706 240.1 496.573 240.1C497.406 240.1 498.09 240.383 498.623 240.95C499.19 241.517 499.473 242.183 499.473 242.95C499.473 243.717 499.373 244.417 499.173 245.05C498.973 245.65 498.34 247.083 497.273 249.35C496.24 251.583 495.723 252.983 495.723 253.55C495.723 254.117 495.89 254.567 496.223 254.9C496.556 255.2 496.873 255.35 497.173 255.35C497.473 255.35 497.723 255.3 497.923 255.2C498.123 255.1 498.34 254.95 498.573 254.75C498.84 254.55 499.073 254.367 499.273 254.2C499.473 254.033 499.706 253.817 499.973 253.55C500.273 253.25 500.49 253.05 500.623 252.95ZM518.916 251.9L520.116 252.9C519.316 254.733 518.033 256.2 516.266 257.3C514.5 258.4 512.783 258.95 511.116 258.95C509.483 258.95 508.116 258.433 507.016 257.4C505.95 256.367 505.416 254.95 505.416 253.15C505.416 251.35 506.2 249.4 507.766 247.3C509.333 245.2 511.35 243.467 513.816 242.1C516.316 240.733 518.766 240.05 521.166 240.05C521.5 240.05 522 240.083 522.666 240.15L522.516 242.1C518.85 242.267 515.8 243.383 513.366 245.45C510.966 247.517 509.766 249.717 509.766 252.05C509.766 253.017 510.066 253.8 510.666 254.4C511.266 255 512.05 255.3 513.016 255.3C514.55 255.3 516.516 254.167 518.916 251.9ZM540.128 253.1L541.278 254C540.245 255.433 538.828 256.633 537.028 257.6C535.228 258.533 533.478 259 531.778 259C530.078 259 528.711 258.5 527.678 257.5C526.645 256.5 526.128 255.183 526.128 253.55C526.128 250.483 527.745 247.467 530.978 244.5C534.245 241.533 537.545 240.05 540.878 240.05C543.078 240.05 544.178 240.917 544.178 242.65C544.178 244.45 543.011 246.267 540.678 248.1C538.378 249.933 535.128 251.6 530.928 253.1C531.228 253.867 531.695 254.467 532.328 254.9C532.961 255.333 533.611 255.55 534.278 255.55C535.711 255.55 537.661 254.733 540.128 253.1ZM530.678 251.6C533.378 250.667 535.695 249.5 537.628 248.1C539.561 246.7 540.528 245.417 540.528 244.25C540.528 243.817 540.361 243.433 540.028 243.1C539.695 242.767 539.311 242.6 538.878 242.6C537.311 242.6 535.611 243.583 533.778 245.55C531.978 247.483 530.945 249.5 530.678 251.6Z" fill="black"/>
</svg>
